<svg width="14" height="16" viewBox="0 0 14 16" fill="none" xmlns="http://www.w3.org/2000/svg">
<path d="M5.09091 6.36364V11.4545C5.09091 11.6233 5.15795 11.7852 5.2773 11.9045C5.39664 12.0239 5.5585 12.0909 5.72727 12.0909C5.89605 12.0909 6.05791 12.0239 6.17725 11.9045C6.29659 11.7852 6.36364 11.6233 6.36364 11.4545V6.36364C6.36364 6.19486 6.29659 6.033 6.17725 5.91366C6.05791 5.79432 5.89605 5.72727 5.72727 5.72727C5.5585 5.72727 5.39664 5.79432 5.2773 5.91366C5.15795 6.033 5.09091 6.19486 5.09091 6.36364ZM8.27273 5.72727C8.4415 5.72727 8.60336 5.79432 8.7227 5.91366C8.84205 6.033 8.90909 6.19486 8.90909 6.36364V11.4545C8.90909 11.6233 8.84205 11.7852 8.7227 11.9045C8.60336 12.0239 8.4415 12.0909 8.27273 12.0909C8.10395 12.0909 7.94209 12.0239 7.82275 11.9045C7.70341 11.7852 7.63636 11.6233 7.63636 11.4545V6.36364C7.63636 6.19486 7.70341 6.033 7.82275 5.91366C7.94209 5.79432 8.10395 5.72727 8.27273 5.72727ZM9.54545 2.54545H13.3636C13.5324 2.54545 13.6943 2.6125 13.8136 2.73184C13.933 2.85118 14 3.01304 14 3.18182C14 3.35059 13.933 3.51245 13.8136 3.6318C13.6943 3.75114 13.5324 3.81818 13.3636 3.81818H12.6598L11.7027 12.4422C11.6163 13.2205 11.2458 13.9396 10.6623 14.4619C10.0787 14.9841 9.32311 15.2728 8.54 15.2727H5.46C4.67689 15.2728 3.92125 14.9841 3.33771 14.4619C2.75418 13.9396 2.38373 13.2205 2.29727 12.4422L1.33891 3.81818H0.636364C0.467589 3.81818 0.305728 3.75114 0.186387 3.6318C0.0670454 3.51245 0 3.35059 0 3.18182C0 3.01304 0.0670454 2.85118 0.186387 2.73184C0.305728 2.6125 0.467589 2.54545 0.636364 2.54545H4.45455C4.45455 1.87036 4.72273 1.22291 5.20009 0.745546C5.67746 0.268181 6.3249 0 7 0C7.6751 0 8.32254 0.268181 8.79991 0.745546C9.27727 1.22291 9.54545 1.87036 9.54545 2.54545V2.54545ZM7 1.27273C6.66245 1.27273 6.33873 1.40682 6.10005 1.6455C5.86136 1.88418 5.72727 2.20791 5.72727 2.54545H8.27273C8.27273 2.20791 8.13864 1.88418 7.89995 1.6455C7.66127 1.40682 7.33755 1.27273 7 1.27273V1.27273ZM2.62055 3.81818L3.56236 12.3022C3.61435 12.7691 3.83667 13.2004 4.18678 13.5137C4.5369 13.8269 4.99021 14.0001 5.46 14H8.54C9.00957 13.9998 9.46257 13.8265 9.81242 13.5132C10.1623 13.2 10.3844 12.7689 10.4364 12.3022L11.3807 3.81818H2.62182H2.62055Z" fill="#F7F7F7"/>
</svg>
